<svg xmlns="http://www.w3.org/2000/svg" viewBox="0 0 1600 620" preserveAspectRatio="xMidYMax slice" aria-hidden="true">
  <defs>
    <!-- Distant ridges: hazy and desaturated so they read as far away. -->
    <linearGradient id="far" x1="0" y1="0" x2="0" y2="1">
      <stop offset="0" stop-color="#93bcae" stop-opacity=".6"/>
      <stop offset="1" stop-color="#b9d3ca" stop-opacity=".4"/>
    </linearGradient>
    <linearGradient id="far2" x1="0" y1="0" x2="0" y2="1">
      <stop offset="0" stop-color="#7fae9c" stop-opacity=".7"/>
      <stop offset="1" stop-color="#a6c8b8" stop-opacity=".45"/>
    </linearGradient>

    <!-- Main hill: sunlit crown rolling into a cool shaded flank. -->
    <linearGradient id="mid" x1=".15" y1="0" x2=".7" y2="1">
      <stop offset="0" stop-color="#9fc23c"/>
      <stop offset=".38" stop-color="#5f9a2e"/>
      <stop offset="1" stop-color="#1f5526"/>
    </linearGradient>
    <linearGradient id="midShade" x1="0" y1="0" x2="1" y2=".6">
      <stop offset="0" stop-color="#173f1e" stop-opacity=".55"/>
      <stop offset=".6" stop-color="#1d4a24" stop-opacity=".18"/>
      <stop offset="1" stop-color="#1d4a24" stop-opacity="0"/>
    </linearGradient>

    <linearGradient id="right" x1=".2" y1="0" x2=".8" y2="1">
      <stop offset="0" stop-color="#b9d13f"/>
      <stop offset=".45" stop-color="#72ab30"/>
      <stop offset="1" stop-color="#2c6528"/>
    </linearGradient>

    <linearGradient id="near" x1=".3" y1="0" x2=".6" y2="1">
      <stop offset="0" stop-color="#7bb133"/>
      <stop offset=".45" stop-color="#519227"/>
      <stop offset="1" stop-color="#357520"/>
    </linearGradient>
    <linearGradient id="nearShade" x1="0" y1="0" x2=".85" y2=".4">
      <stop offset="0" stop-color="#19401f" stop-opacity=".5"/>
      <stop offset=".55" stop-color="#1e4b25" stop-opacity=".12"/>
      <stop offset="1" stop-color="#1e4b25" stop-opacity="0"/>
    </linearGradient>

    <radialGradient id="sun" cx="72%" cy="10%" r="75%">
      <stop offset="0" stop-color="#fff6c9" stop-opacity=".26"/>
      <stop offset=".45" stop-color="#f2f0a8" stop-opacity=".07"/>
      <stop offset="1" stop-color="#ffffff" stop-opacity="0"/>
    </radialGradient>

    <filter id="haze" x="-10%" y="-40%" width="120%" height="200%">
      <feGaussianBlur stdDeviation="7"/>
    </filter>
    <filter id="softEdge" x="-5%" y="-20%" width="110%" height="150%">
      <feGaussianBlur stdDeviation="1.6"/>
    </filter>
    <!-- Foreground defocus, mimicking a shallow depth of field. -->
    <filter id="bokeh" x="-5%" y="-20%" width="110%" height="160%">
      <feGaussianBlur stdDeviation="4.5"/>
    </filter>

    <pattern id="flowers" width="120" height="90" patternUnits="userSpaceOnUse">
      <circle cx="14" cy="20" r="2.6" fill="#fff" opacity=".85"/>
      <circle cx="62" cy="10" r="2" fill="#fdfff0" opacity=".7"/>
      <circle cx="95" cy="34" r="2.9" fill="#fff" opacity=".8"/>
      <circle cx="38" cy="52" r="2.2" fill="#f7ffe8" opacity=".75"/>
      <circle cx="78" cy="70" r="2.7" fill="#fff" opacity=".8"/>
      <circle cx="8" cy="76" r="2.1" fill="#fffdf2" opacity=".65"/>
      <circle cx="112" cy="82" r="2.4" fill="#fff" opacity=".7"/>
    </pattern>
  </defs>

  <!-- Far ridge line, barely there. -->
  <path filter="url(#haze)" fill="url(#far)"
        d="M0,352 C170,318 300,300 470,312 C640,324 760,352 930,344 C1110,336 1250,306 1420,314 C1500,318 1560,330 1600,338 L1600,620 L0,620 Z"/>
  <path filter="url(#haze)" fill="url(#far2)" opacity=".8"
        d="M0,392 C140,368 260,344 430,352 C600,360 700,388 880,382 C1060,376 1200,350 1380,358 C1470,362 1550,376 1600,384 L1600,620 L0,620 Z"/>

  <!-- Main rolling hill. -->
  <path filter="url(#softEdge)" fill="url(#mid)"
        d="M300,620 C300,620 330,470 520,418 C660,380 780,404 900,438 C1040,478 1180,470 1310,436 C1440,402 1540,404 1600,416 L1600,620 Z"/>
  <path filter="url(#softEdge)" fill="url(#midShade)"
        d="M300,620 C300,620 330,470 520,418 C620,390 700,398 780,418 C700,470 620,540 580,620 Z"/>

  <!-- Right hill catching the low sun. -->
  <path filter="url(#softEdge)" fill="url(#right)"
        d="M980,620 C1010,520 1120,462 1270,452 C1400,444 1520,470 1600,494 L1600,620 Z"/>

  <!-- Left shoulder. -->
  <path filter="url(#softEdge)" fill="url(#mid)" opacity=".95"
        d="M0,470 C90,442 190,432 300,448 C280,502 250,560 240,620 L0,620 Z"/>

  <!-- Foreground meadow. -->
  <path fill="url(#near)"
        d="M0,560 C180,506 340,494 520,522 C700,550 860,608 1040,600 C1220,592 1400,552 1600,566 L1600,620 L0,620 Z"/>
  <path fill="url(#nearShade)"
        d="M0,560 C180,506 340,494 520,522 C640,540 740,576 850,592 C560,600 250,600 0,620 Z"/>

  <!-- Wildflowers, densest in the near field. -->
  <path fill="url(#flowers)" opacity=".55" filter="url(#bokeh)"
        d="M0,566 C180,512 340,500 520,528 C700,556 860,614 1040,606 C1220,598 1400,558 1600,572 L1600,620 L0,620 Z"/>

  <rect width="1600" height="620" fill="url(#sun)"/>
</svg>
